<svg version="1.1" id="Layer_1" xmlns="http://www.w3.org/2000/svg" xmlns:xlink="http://www.w3.org/1999/xlink" x="0px" y="0px"
	 width="512px" height="512px" viewBox="0 0 1024 1024" enable-background="new 0 0 1024 1024" xml:space="preserve">
<!-- Background removed to make logo transparent -->
M721.019043,606.898560 
	C721.019043,634.472046 721.019043,662.045532 721.019043,689.729980 
	C727.268677,689.729980 733.142395,689.729980 739.444580,689.729980 
	C739.444580,679.029724 739.444580,668.639221 739.444580,657.901611 
	C751.301392,657.901611 762.727295,657.901611 773.971069,657.901611 
	C773.971069,652.295410 773.971069,647.059998 773.971069,641.457275 
	C762.266907,641.457275 750.880310,641.457275 739.445801,641.457275 
	C739.445801,634.828125 739.445801,628.581726 739.445801,621.755554 
	C752.477661,621.755554 765.246399,621.755554 778.743408,621.909851 
	C779.453735,621.276184 780.164124,620.642578 781.035095,619.093201 
	C780.977722,615.058838 780.920349,611.024475 781.001282,606.251038 
	C780.335571,605.850891 779.669861,605.450745 778.085815,604.846497 
	C759.387207,604.920532 740.688660,604.994629 721.443115,605.000061 
	C721.354370,605.323059 721.265564,605.646118 721.019043,606.898560 
M707.572266,807.951233 
	C707.679443,807.640503 707.786560,807.329834 708.046509,806.091064 
	C708.046509,800.818481 708.046509,795.545959 708.046509,789.923462 
	C692.523987,789.923462 677.448425,789.923462 662.192566,789.923462 
	C662.192566,783.492676 662.192566,777.424683 662.192566,770.930420 
	C674.798340,770.930420 687.195984,770.930420 699.799744,770.930420 
	C699.799744,764.777466 699.799744,759.051819 699.799744,752.930542 
	C687.166077,752.930542 674.762207,752.930542 662.378967,752.930542 
	C662.378967,746.661316 662.378967,740.795166 662.378967,734.651123 
	C677.704163,734.651123 692.647522,734.651123 707.746765,734.651123 
	C707.746765,728.311951 707.746765,722.267578 707.746765,716.297241 
	C685.891418,716.297241 664.334595,716.297241 642.644409,716.297241 
	C642.644409,727.934814 642.605896,739.252563 642.653076,750.569946 
	C642.731384,769.378723 642.864685,788.187256 642.914734,807.605469 
	C643.271057,807.708069 643.627380,807.810730 644.912903,808.061584 
	C665.612976,808.009766 686.313110,807.957947 707.572266,807.951233 
M573.987488,465.487579 
	C579.285828,460.186707 584.655640,454.954803 589.856812,449.560211 
	C593.218018,446.073975 596.200012,442.251953 601.824646,445.859528 
	C602.900818,446.549774 604.762390,446.061279 606.260559,446.040588 
	C617.194580,445.889618 626.373047,436.018799 625.793030,425.055115 
	C625.143677,412.778076 615.473328,404.453949 603.410767,405.788574 
	C592.179199,407.031250 584.031311,417.610596 585.390808,428.627258 
	C585.639954,430.645966 584.647827,433.468414 583.219543,434.941437 
	C570.928650,447.617615 558.261597,459.931549 546.082886,472.711975 
	C543.839050,475.066681 542.243347,479.007202 542.144958,482.269958 
	C541.723389,496.253754 541.981201,510.257782 541.964294,524.254456 
	C541.962952,525.397461 541.757263,526.540161 541.670227,527.438293 
	C538.672668,523.334045 536.275879,518.826599 532.737000,515.554138 
	C529.240479,512.320862 524.589783,510.335663 520.009094,507.536316 
	C520.009094,492.413147 520.116089,476.587067 519.925476,460.764587 
	C519.883606,457.288544 520.972595,454.890961 523.379211,452.490479 
	C543.185913,432.734314 562.740784,412.723267 582.713928,393.138214 
	C587.943909,388.009888 590.672729,382.904297 590.182068,375.343292 
	C589.494995,364.755432 590.008728,354.089661 590.008728,343.622528 
	C602.951294,339.532013 611.439331,326.368317 609.957642,313.300293 
	C608.397522,299.540894 597.548706,288.261719 584.689819,287.030243 
	C571.318054,285.749664 558.653748,294.508667 554.356262,307.964752 
	C552.353271,314.236542 552.715271,320.383209 555.067322,326.483185 
	C558.667114,335.819427 565.683533,341.387451 575.005798,344.095520 
	C575.005798,355.060120 575.145874,365.557007 574.883972,376.043793 
	C574.833374,378.071594 573.678284,380.513885 572.239685,381.994354 
	C561.559631,392.985382 550.682373,403.784760 539.860840,414.638123 
	C533.469727,421.048065 527.067200,427.446625 520.259094,434.261444 
	C520.259094,383.815216 520.259094,334.091888 520.259094,284.452362 
	C535.484680,279.481049 543.213440,266.743835 540.973877,250.650925 
	C539.240845,238.197433 526.996094,227.502426 514.556641,226.847458 
	C499.323364,226.045380 486.907379,236.352219 484.119476,250.169922 
	C480.964630,265.806458 488.901642,278.700989 504.820129,284.581604 
	C504.820129,342.276428 504.820129,399.971252 504.820129,458.326569 
	C487.076691,440.588959 469.783661,423.340057 452.582916,405.999634 
	C451.666656,405.075928 451.107025,403.383972 451.094604,402.043030 
	C450.982178,389.890106 451.028717,377.735718 451.028717,365.671783 
	C466.082550,359.843994 473.719971,346.913727 471.135712,331.929108 
	C468.684387,317.715393 457.409973,307.934937 443.186707,307.683533 
	C428.799774,307.429291 416.782440,317.462189 414.115753,331.953949 
	C411.634491,345.438080 419.512970,360.096527 432.242645,364.534851 
	C435.605957,365.707550 436.058075,367.217072 436.027527,370.173950 
	C435.907135,381.837189 436.120117,393.504913 435.911652,405.165649 
	C435.834229,409.494812 437.206299,412.706329 440.269592,415.751373 
	C460.941711,436.300446 481.493896,456.970276 502.037537,477.648102 
	C503.251434,478.869934 504.871399,480.475250 504.915405,481.943634 
	C505.183228,490.885040 505.049072,499.838470 505.049072,508.621948 
	C487.978424,514.822632 482.733917,529.186768 484.156616,540.972839 
	C485.802856,554.610657 495.777100,564.160767 509.693420,566.296631 
	C523.843933,568.468384 533.697205,561.240234 542.617310,542.024231 
	C543.688782,542.024231 544.845581,542.032410 546.002319,542.023010 
	C555.096802,541.949341 557.008545,540.004700 557.009399,530.830811 
	C557.010376,519.999573 557.702454,509.111511 556.819397,498.352783 
	C555.903809,487.199249 558.300903,478.195251 567.815674,471.603424 
	C569.968140,470.112213 571.598083,467.866608 573.987488,465.487579 
M337.014526,294.500061 
	C337.005432,313.159119 337.149841,331.819885 336.936676,350.476624 
	C336.777466,364.411102 331.185974,375.213562 317.722748,380.835571 
	C313.922150,382.422577 310.016876,383.758942 306.170654,385.206116 
	C306.170654,391.765533 306.170654,398.234650 306.170654,404.715790 
	C308.681549,405.531219 311.052948,406.259918 313.396423,407.069458 
	C324.502563,410.905914 333.175598,417.218597 335.625427,429.553772 
	C336.334412,433.123596 336.909058,436.788940 336.933075,440.414581 
	C337.075531,461.904968 336.858582,483.399139 337.172882,504.886047 
	C337.264282,511.133270 337.894287,517.599365 339.655426,523.557861 
	C349.588104,557.162476 375.593597,563.021606 404.705444,559.430603 
	C404.705444,551.334229 404.705444,543.237854 404.705444,534.792969 
	C401.359467,534.792969 398.226990,534.894897 395.102997,534.775452 
	C381.088226,534.239685 372.752716,528.614075 369.604553,516.909790 
	C368.415741,512.489929 368.125519,507.739075 368.037872,503.127411 
	C367.595184,479.828430 367.886658,456.501953 366.853180,433.232513 
	C366.176697,418.001587 358.811737,406.048218 344.536255,399.234161 
	C341.145477,397.615692 337.595825,396.330109 333.436066,394.608704 
	C335.639771,393.879425 337.132599,393.429596 338.594269,392.894714 
	C350.990082,388.358643 360.984650,381.049988 364.633331,367.754822 
	C366.504364,360.937256 367.690063,353.736176 367.842102,346.679504 
	C368.269073,326.863159 367.938171,307.031464 368.052185,287.206635 
	C368.075958,283.072510 368.421844,278.887512 369.146973,274.820038 
	C371.307831,262.699127 377.283112,256.715210 389.336426,254.825607 
	C394.352783,254.039200 399.498596,254.078537 404.642700,253.738602 
	C404.642700,245.476257 404.642700,237.412430 404.642700,229.008286 
	C397.908203,229.008286 391.440918,228.973923 384.974091,229.014648 
	C364.701660,229.142319 350.918640,239.316162 341.961700,256.900299 
	C336.044067,268.517670 337.003540,281.075592 337.014526,294.500061 
M638.807556,255.117676 
	C649.109070,257.497589 654.428345,264.581329 656.562134,274.383270 
	C657.404114,278.250916 657.840210,282.270386 657.915161,286.231079 
	C658.362122,309.854706 658.010193,333.513763 659.206482,357.096008 
	C660.058350,373.887390 668.861267,386.072540 685.315002,391.820984 
	C687.799255,392.688904 690.282837,393.558929 692.844482,394.455200 
	C687.419312,397.194000 682.051086,399.433533 677.168823,402.457550 
	C662.966858,411.254059 658.580933,425.304840 658.165649,440.848877 
	C657.712036,457.827667 658.115723,474.827789 657.962036,491.816956 
	C657.901978,498.456085 657.684875,505.129395 656.940613,511.719513 
	C655.271484,526.499573 645.737427,534.818665 630.884705,534.927124 
	C627.636047,534.950867 624.387146,534.930664 621.303345,534.930664 
	C621.303345,543.689331 621.303345,551.775330 621.303345,560.060974 
	C628.722046,560.060974 635.956726,560.788208 642.969482,559.852234 
	C649.705078,558.953247 656.882996,557.522644 662.692200,554.244507 
	C680.644287,544.113953 688.353210,527.344299 688.884399,507.419312 
	C689.461243,485.779816 688.868408,464.111694 689.085876,442.459106 
	C689.229919,428.126373 692.368408,414.322266 707.776306,409.519745 
	C718.935364,406.041595 721.129333,399.853027 719.911621,389.728638 
	C719.478027,386.123322 718.879456,384.339233 715.226746,383.062073 
	C694.864868,375.942444 689.010254,367.500916 689.011536,346.197754 
	C689.012939,324.043304 689.380981,301.880402 688.883118,279.737061 
	C688.492920,262.381927 681.095398,248.155563 667.221008,237.387619 
	C653.284668,226.571701 637.165894,229.216171 621.297974,229.155899 
	C621.297974,237.833389 621.297974,246.070465 621.297974,255.029099 
	C627.009399,255.029099 632.469604,255.029099 638.807556,255.117676 
M429.394257,796.106445 
	C441.778290,807.552917 456.216980,812.075378 472.926605,809.146179 
	C496.659424,804.985779 514.352173,783.324219 512.940491,760.072388 
	C511.443176,735.412231 491.149292,715.699646 466.357391,714.823792 
	C444.948273,714.067383 427.401703,724.608643 419.063110,743.236023 
	C410.998352,761.251709 414.671082,780.813965 429.394257,796.106445 
M538.754639,716.127563 
	C534.921387,715.723633 536.031555,718.574524 536.027466,720.467407 
	C535.976074,744.265259 535.981567,768.063354 535.973450,791.861328 
	C535.971680,797.140991 535.973206,802.420654 535.973206,808.097229 
	C548.460266,808.097229 560.564880,807.980225 572.666504,808.120056 
	C603.942810,808.481506 624.004883,781.650757 619.127075,753.839233 
	C615.815430,734.956848 599.135681,718.281677 580.101257,717.040894 
	C566.676514,716.165710 553.179932,716.392822 538.754639,716.127563 
M699.823730,650.202820 
	C700.218201,619.671753 675.359680,598.259399 645.808838,604.108398 
	C624.382324,608.349487 611.064270,628.814880 611.809143,649.963440 
	C612.918152,681.451599 646.716370,702.267151 674.968506,688.200928 
	C690.205200,680.614990 697.904907,667.754822 699.823730,650.202820 
M373.622223,787.302734 
	C360.842529,793.995117 345.970764,790.646606 337.763550,779.228638 
	C329.270233,767.412537 330.396332,751.764404 340.408264,741.938843 
	C345.316132,737.122314 350.948639,734.154419 358.003754,733.753601 
	C368.199615,733.174438 376.324493,737.193970 383.497803,744.947693 
	C387.907532,740.162659 392.044189,735.673889 396.205383,731.158508 
	C380.779724,711.238647 347.571777,708.983643 327.886719,726.717957 
	C306.836914,745.681763 306.663452,777.547180 327.734222,797.297913 
	C346.325073,814.723938 377.602722,814.941345 395.738770,792.194092 
	C391.592133,788.197449 387.422882,784.178955 383.257263,780.164001 
	C380.332062,782.407837 377.323914,784.715210 373.622223,787.302734 
M364.000275,671.835571 
	C357.226318,668.203857 354.811127,662.238586 354.839142,654.902954 
	C354.897003,639.749451 354.911713,624.595764 354.926636,609.442139 
	C354.928040,608.012756 354.805481,606.583191 354.742432,605.197388 
	C348.529938,605.197388 342.761047,605.197388 336.997711,605.197388 
	C336.997711,624.368835 336.573883,643.337646 337.200134,662.271667 
	C337.461426,670.171387 341.515198,677.124268 347.745209,682.506653 
	C357.316010,690.775269 368.648804,692.839966 380.757019,691.961609 
	C397.839111,690.722473 411.773407,677.930603 413.009491,660.950378 
	C414.119049,645.708130 413.680817,630.352600 413.904785,615.046753 
	C413.952637,611.778015 413.911774,608.507935 413.911774,605.116577 
	C407.570099,605.116577 401.786194,605.116577 395.516479,605.116577 
	C395.516479,609.380066 395.549377,613.510620 395.510468,617.640442 
	C395.381989,631.286804 395.446930,644.940247 394.992096,658.576050 
	C394.758911,665.567566 390.321136,670.255493 384.088165,672.698975 
	C377.711395,675.198792 371.103516,674.980164 364.000275,671.835571 
M242.008759,637.721924 
	C241.997559,643.993286 241.025772,650.444031 242.157074,656.502014 
	C245.419754,673.973083 255.936981,685.836975 273.019012,690.790894 
	C290.275513,695.795471 306.974854,689.810059 317.545837,675.778625 
	C313.524231,671.983765 309.458679,668.147461 305.372040,664.291260 
	C291.825378,676.325745 278.046478,677.350647 267.369507,666.863159 
	C257.577362,657.244812 256.837158,640.047546 265.621643,629.689087 
	C269.943787,624.592590 275.376953,621.627747 281.908722,621.106384 
	C291.727203,620.322632 299.131561,625.431091 304.929230,631.318787 
	C309.267303,627.437500 313.331573,623.801147 317.346527,620.208923 
	C307.053192,605.899658 289.776886,599.878296 272.650116,604.561096 
	C255.952393,609.126648 246.604019,620.717773 242.008759,637.721924 
M521.084900,653.500000 
	C521.084900,665.595337 521.084900,677.690613 521.084900,689.727661 
	C527.611145,689.727661 533.666260,689.727661 540.110413,689.727661 
	C540.110413,667.020142 540.110413,644.626282 540.110413,621.728516 
	C548.552795,621.728516 556.607849,621.728516 564.695557,621.728516 
	C564.695557,615.950134 564.695557,610.682373 564.695557,605.224731 
	C541.622131,605.224731 518.757385,605.224731 495.903076,605.224731 
	C495.903076,610.917847 495.903076,616.323792 495.903076,622.152954 
	C504.417603,622.152954 512.657593,622.152954 521.084900,622.152954 
	C521.084900,632.553711 521.084900,642.526855 521.084900,653.500000 
M458.068695,658.494263 
	C458.068695,640.752136 458.068695,623.009949 458.068695,605.247437 
	C451.734009,605.247437 445.824890,605.247437 439.942688,605.247437 
	C439.942688,633.577393 439.942688,661.632874 439.942688,689.777588 
	C458.660004,689.777588 477.200867,689.777588 495.738831,689.777588 
	C495.738831,684.100098 495.738831,678.696045 495.738831,672.850464 
	C483.089844,672.850464 470.702728,672.850464 458.067780,672.850464 
	C458.067780,668.099915 458.067780,663.795227 458.068695,658.494263 
z"/>
<path fill="#E9E6E0" opacity="1.000000" stroke="none" 
	d="
M573.728027,465.727905 
	C571.598083,467.866608 569.968140,470.112213 567.815674,471.603424 
	C558.300903,478.195251 555.903809,487.199249 556.819397,498.352783 
	C557.702454,509.111511 557.010376,519.999573 557.009399,530.830811 
	C557.008545,540.004700 555.096802,541.949341 546.002319,542.023010 
	C544.845581,542.032410 543.688782,542.024231 542.617310,542.024231 
	C533.697205,561.240234 523.843933,568.468384 509.693420,566.296631 
	C495.777100,564.160767 485.802856,554.610657 484.156616,540.972839 
	C482.733917,529.186768 487.978424,514.822632 505.049072,508.621948 
	C505.049072,499.838470 505.183228,490.885040 504.915405,481.943634 
	C504.871399,480.475250 503.251434,478.869934 502.037537,477.648102 
	C481.493896,456.970276 460.941711,436.300446 440.269592,415.751373 
	C437.206299,412.706329 435.834229,409.494812 435.911652,405.165649 
	C436.120117,393.504913 435.907135,381.837189 436.027527,370.173950 
	C436.058075,367.217072 435.605957,365.707550 432.242645,364.534851 
	C419.512970,360.096527 411.634491,345.438080 414.115753,331.953949 
	C416.782440,317.462189 428.799774,307.429291 443.186707,307.683533 
	C457.409973,307.934937 468.684387,317.715393 471.135712,331.929108 
	C473.719971,346.913727 466.082550,359.843994 451.028717,365.671783 
	C451.028717,377.735718 450.982178,389.890106 451.094604,402.043030 
	C451.107025,403.383972 451.666656,405.075928 452.582916,405.999634 
	C469.783661,423.340057 487.076691,440.588959 504.820129,458.326569 
	C504.820129,399.971252 504.820129,342.276428 504.820312,284.581390 
	C488.901642,278.700989 480.964630,265.806458 484.119476,250.169922 
	C486.907379,236.352219 499.323364,226.045380 514.556641,226.847458 
	C526.996094,227.502426 539.240845,238.197433 540.973877,250.650925 
	C543.213440,266.743835 535.484680,279.481049 520.259094,284.452362 
	C520.259094,334.091888 520.259094,383.815216 520.259094,434.261444 
	C527.067200,427.446625 533.469727,421.048065 539.860840,414.638123 
	C550.682373,403.784760 561.559631,392.985382 572.239685,381.994354 
	C573.678284,380.513885 574.833374,378.071594 574.883972,376.043793 
	C575.145874,365.557007 575.005798,355.060120 575.005798,344.095520 
	C565.683533,341.387451 558.667114,335.819427 555.067322,326.483185 
	C552.715271,320.383209 552.353271,314.236542 554.356262,307.964752 
	C558.653748,294.508667 571.318054,285.749664 584.689819,287.030243 
	C597.548706,288.261719 608.397522,299.540894 609.957642,313.300293 
	C611.439331,326.368317 602.951294,339.532013 590.008728,343.622528 
	C590.008728,354.089661 589.494995,364.755432 590.182068,375.343292 
	C590.672729,382.904297 587.943909,388.009888 582.713928,393.138214 
	C562.740784,412.723267 543.185913,432.734314 523.379211,452.490479 
	C520.972595,454.890961 519.883606,457.288544 519.925476,460.764587 
	C520.116089,476.587067 520.009094,492.413147 520.009094,507.536316 
	C524.589783,510.335663 529.240479,512.320862 532.737000,515.554138 
	C536.275879,518.826599 538.672668,523.334045 541.670227,527.438293 
	C541.757263,526.540161 541.962952,525.397461 541.964294,524.254456 
	C541.981201,510.257782 541.723389,496.253754 542.144958,482.269958 
	C542.243347,479.007202 543.839050,475.066681 546.082886,472.711975 
	C558.261597,459.931549 570.928650,447.617615 583.219543,434.941437 
	C584.647827,433.468414 585.639954,430.645966 585.390808,428.627258 
	C584.031311,417.610596 592.179199,407.031250 603.410767,405.788574 
	C615.473328,404.453949 625.143677,412.778076 625.793030,425.055115 
	C626.373047,436.018799 617.194580,445.889618 606.260559,446.040588 
	C604.762390,446.061279 602.900818,446.549774 601.824646,445.859528 
	C596.200012,442.251953 593.218018,446.073975 589.856812,449.560211 
	C584.655640,454.954803 579.285828,460.186707 573.728027,465.727905 
M445.915527,323.974915 
	C444.598053,323.885651 443.277679,323.689667 441.963654,323.725616 
	C436.378540,323.878265 432.561249,326.808197 430.416504,331.760590 
	C428.253418,336.755341 429.099915,341.681946 432.508240,345.763794 
	C436.092834,350.056763 440.972198,351.392456 446.451294,349.984161 
	C451.366241,348.720825 455.550629,343.577240 455.981781,338.404236 
	C456.534912,331.767303 453.758301,327.469147 445.915527,323.974915 
M511.649414,269.192505 
	C521.202698,268.799011 527.700989,261.468628 525.633057,253.418335 
	C523.818542,246.354385 517.941711,242.227310 510.798584,243.000671 
	C504.512024,243.681274 499.233521,249.489426 499.073029,255.902756 
	C498.907440,262.521698 503.478973,267.669861 511.649414,269.192505 
M509.226837,549.949097 
	C510.539886,550.106689 511.853119,550.401245 513.165894,550.399231 
	C520.946167,550.387207 526.749634,544.104370 526.335815,536.216553 
	C525.935608,528.587585 519.687256,523.110718 512.081726,523.722473 
	C506.461212,524.174500 501.104309,528.710449 500.059265,533.902405 
	C498.735352,540.480103 501.666290,545.995728 509.226837,549.949097 
M569.011047,313.948334 
	C569.009216,314.779205 568.978882,315.611176 569.010132,316.440796 
	C569.235168,322.411621 573.061707,327.267548 578.700195,328.756714 
	C583.815979,330.107849 589.815552,327.380920 592.670776,322.406860 
	C595.466064,317.536987 594.582336,310.788544 590.625671,306.788879 
	C583.563965,299.650543 573.893066,302.499695 569.011047,313.948334 
M607.239807,431.034851 
	C611.186096,429.896240 612.183594,426.770660 610.696533,423.694916 
	C609.889343,422.025635 606.439270,420.166412 604.935059,420.665314 
	C602.955872,421.321808 600.583923,424.121979 600.418091,426.165771 
	C600.145081,429.528931 602.843567,431.330139 607.239807,431.034851 
z"/>
<path fill="#EAE6E0" opacity="1.000000" stroke="none" 
	d="
M337.014404,294.000122 
	C337.003540,281.075592 336.044067,268.517670 341.961700,256.900299 
	C350.918640,239.316162 364.701660,229.142319 384.974091,229.014648 
	C391.440918,228.973923 397.908203,229.008286 404.642700,229.008286 
	C404.642700,237.412430 404.642700,245.476257 404.642700,253.738602 
	C399.498596,254.078537 394.352783,254.039200 389.336426,254.825607 
	C377.283112,256.715210 371.307831,262.699127 369.146973,274.820038 
	C368.421844,278.887512 368.075958,283.072510 368.052185,287.206635 
	C367.938171,307.031464 368.269073,326.863159 367.842102,346.679504 
	C367.690063,353.736176 366.504364,360.937256 364.633331,367.754822 
	C360.984650,381.049988 350.990082,388.358643 338.594269,392.894714 
	C337.132599,393.429596 335.639771,393.879425 333.436066,394.608704 
	C337.595825,396.330109 341.145477,397.615692 344.536255,399.234161 
	C358.811737,406.048218 366.176697,418.001587 366.853180,433.232513 
	C367.886658,456.501953 367.595184,479.828430 368.037872,503.127411 
	C368.125519,507.739075 368.415741,512.489929 369.604553,516.909790 
	C372.752716,528.614075 381.088226,534.239685 395.102997,534.775452 
	C398.226990,534.894897 401.359467,534.792969 404.705444,534.792969 
	C404.705444,543.237854 404.705444,551.334229 404.702332,559.431396 
	C375.593597,563.021606 349.588104,557.162476 339.655426,523.557861 
	C337.894287,517.599365 337.264282,511.133270 337.172882,504.886047 
	C336.858582,483.399139 337.075531,461.904968 336.933075,440.414581 
	C336.909058,436.788940 336.334412,433.123596 335.625427,429.553772 
	C333.175598,417.218597 324.502563,410.905914 313.396423,407.069458 
	C311.052948,406.259918 308.681549,405.531219 306.170654,404.715790 
	C306.170654,398.234650 306.170654,391.765533 306.170654,385.206116 
	C310.016876,383.758942 313.922150,382.422577 317.722748,380.835571 
	C331.185974,375.213562 336.777466,364.411102 336.936676,350.476624 
	C337.149841,331.819885 337.005432,313.159119 337.014404,294.000122 
z"/>
<path fill="#EBE6E1" opacity="1.000000" stroke="none" 
	d="
M638.368713,255.073395 
	C632.469604,255.029099 627.009399,255.029099 621.297974,255.029099 
	C621.297974,246.070465 621.297974,237.833389 621.297974,229.155899 
	C637.165894,229.216171 653.284668,226.571701 667.221008,237.387619 
	C681.095398,248.155563 688.492920,262.381927 688.883118,279.737061 
	C689.380981,301.880402 689.012939,324.043304 689.011536,346.197754 
	C689.010254,367.500916 694.864868,375.942444 715.226746,383.062073 
	C718.879456,384.339233 719.478027,386.123322 719.911621,389.728638 
	C721.129333,399.853027 718.935364,406.041595 707.776306,409.519745 
	C692.368408,414.322266 689.229919,428.126373 689.085876,442.459106 
	C688.868408,464.111694 689.461243,485.779816 688.884399,507.419312 
	C688.353210,527.344299 680.644287,544.113953 662.692200,554.244507 
	C656.882996,557.522644 649.705078,558.953247 642.969482,559.852234 
	C635.956726,560.788208 628.722046,560.060974 621.303345,560.060974 
	C621.303345,551.775330 621.303345,543.689331 621.303345,534.930664 
	C624.387146,534.930664 627.636047,534.950867 630.884705,534.927124 
	C645.737427,534.818665 655.271484,526.499573 656.940613,511.719513 
	C657.684875,505.129395 657.901978,498.456085 657.962036,491.816956 
	C658.115723,474.827789 657.712036,457.827667 658.165649,440.848877 
	C658.580933,425.304840 662.966858,411.254059 677.168823,402.457550 
	C682.051086,399.433533 687.419312,397.194000 692.844482,394.455200 
	C690.282837,393.558929 687.799255,392.688904 685.315002,391.820984 
	C668.861267,386.072540 660.058350,373.887390 659.206482,357.096008 
	C658.010193,333.513763 658.362122,309.854706 657.915161,286.231079 
	C657.840210,282.270386 657.404114,278.250916 656.562134,274.383270 
	C654.428345,264.581329 649.109070,257.497589 638.368713,255.073395 
z"/>
<path fill="#E7E3DD" opacity="1.000000" stroke="none" 
	d="
M429.144684,795.855347 
	C414.671082,780.813965 410.998352,761.251709 419.063110,743.236023 
	C427.401703,724.608643 444.948273,714.067383 466.357391,714.823792 
	C491.149292,715.699646 511.443176,735.412231 512.940491,760.072388 
	C514.352173,783.324219 496.659424,804.985779 472.926605,809.146179 
	C456.216980,812.075378 441.778290,807.552917 429.144684,795.855347 
M492.203308,759.212097 
	C490.778351,747.790527 484.516510,739.747375 474.004150,735.752808 
	C463.084625,731.603638 452.579590,733.529785 444.026978,741.724792 
	C435.850067,749.559814 433.124054,759.346558 436.310577,770.383667 
	C440.131378,783.617737 455.145050,793.113220 467.910553,790.574646 
	C483.802612,787.414368 493.799408,774.916016 492.203308,759.212097 
z"/>
<path fill="#E7E3DD" opacity="1.000000" stroke="none" 
	d="
M539.234985,716.127686 
	C553.179932,716.392822 566.676514,716.165710 580.101257,717.040894 
	C599.135681,718.281677 615.815430,734.956848 619.127075,753.839233 
	C624.004883,781.650757 603.942810,808.481506 572.666504,808.120056 
	C560.564880,807.980225 548.460266,808.097229 535.973206,808.097229 
	C535.973206,802.420654 535.971680,797.140991 535.973450,791.861328 
	C535.981567,768.063354 535.976074,744.265259 536.027466,720.467407 
	C536.031555,718.574524 534.921387,715.723633 539.234985,716.127686 
M555.938599,760.500000 
	C555.938599,770.238953 555.938599,779.977966 555.938599,789.953186 
	C562.093628,789.953186 567.732178,790.225220 573.335693,789.897583 
	C585.647705,789.177612 596.781250,780.049316 598.999451,769.213562 
	C601.662903,756.202515 596.676392,744.376709 586.112366,738.534302 
	C576.526001,733.232483 566.231812,735.381897 555.937683,734.982300 
	C555.937683,743.572449 555.937683,751.536194 555.938599,760.500000 
z"/>
<path fill="#E9E5DE" opacity="1.000000" stroke="none" 
	d="
M642.974854,806.995850 
	C642.864685,788.187256 642.731384,769.378723 642.653076,750.569946 
	C642.605896,739.252563 642.644409,727.934814 642.644409,716.297241 
	C664.334595,716.297241 685.891418,716.297241 707.746765,716.297241 
	C707.746765,722.267578 707.746765,728.311951 707.746765,734.651123 
	C692.647522,734.651123 677.704163,734.651123 662.378967,734.651123 
	C662.378967,740.795166 662.378967,746.661316 662.378967,752.930542 
	C674.762207,752.930542 687.166077,752.930542 699.799744,752.930542 
	C699.799744,759.051819 699.799744,764.777466 699.799744,770.930420 
	C687.195984,770.930420 674.798340,770.930420 662.192566,770.930420 
	C662.192566,777.424683 662.192566,783.492676 662.192566,789.923462 
	C677.448425,789.923462 692.523987,789.923462 708.046509,789.923462 
	C708.046509,795.545959 708.046509,800.818481 707.784424,806.660706 
	C707.291199,807.409302 707.121460,807.634583 707.013184,807.906189 
	C686.313110,807.957947 665.612976,808.009766 644.328064,807.787720 
	C643.526672,807.282532 643.270569,807.109863 642.974854,806.995850 
z"/>
<path fill="#E7E3DD" opacity="1.000000" stroke="none" 
	d="
M699.776123,650.648926 
	C697.904907,667.754822 690.205200,680.614990 674.968506,688.200928 
	C646.716370,702.267151 612.918152,681.451599 611.809143,649.963440 
	C611.064270,628.814880 624.382324,608.349487 645.808838,604.108398 
	C675.359680,598.259399 700.218201,619.671753 699.776123,650.648926 
M674.461975,665.920959 
	C675.491089,664.412842 676.676697,662.987305 677.523926,661.383179 
	C682.709656,651.564392 682.229126,641.910278 676.150574,632.677979 
	C670.683777,624.375000 662.814026,620.175781 652.883362,621.189636 
	C641.997986,622.301025 633.028137,631.025757 631.059143,641.514099 
	C628.748840,653.820435 634.044067,665.724304 644.319458,671.323486 
	C654.152283,676.681580 664.982483,674.893433 674.461975,665.920959 
z"/>
<path fill="#E7E3DD" opacity="1.000000" stroke="none" 
	d="
M373.968994,787.162659 
	C377.323914,784.715210 380.332062,782.407837 383.257263,780.164001 
	C387.422882,784.178955 391.592133,788.197449 395.738770,792.194092 
	C377.602722,814.941345 346.325073,814.723938 327.734222,797.297913 
	C306.663452,777.547180 306.836914,745.681763 327.886719,726.717957 
	C347.571777,708.983643 380.779724,711.238647 396.205383,731.158508 
	C392.044189,735.673889 387.907532,740.162659 383.497803,744.947693 
	C376.324493,737.193970 368.199615,733.174438 358.003754,733.753601 
	C350.948639,734.154419 345.316132,737.122314 340.408264,741.938843 
	C330.396332,751.764404 329.270233,767.412537 337.763550,779.228638 
	C345.970764,790.646606 360.842529,793.995117 373.968994,787.162659 
z"/>
<path fill="#E6E2DC" opacity="1.000000" stroke="none" 
	d="
M364.366486,671.972046 
	C371.103516,674.980164 377.711395,675.198792 384.088165,672.698975 
	C390.321136,670.255493 394.758911,665.567566 394.992096,658.576050 
	C395.446930,644.940247 395.381989,631.286804 395.510468,617.640442 
	C395.549377,613.510620 395.516479,609.380066 395.516479,605.116577 
	C401.786194,605.116577 407.570099,605.116577 413.911774,605.116577 
	C413.911774,608.507935 413.952637,611.778015 413.904785,615.046753 
	C413.680817,630.352600 414.119049,645.708130 413.009491,660.950378 
	C411.773407,677.930603 397.839111,690.722473 380.757019,691.961609 
	C368.648804,692.839966 357.316010,690.775269 347.745209,682.506653 
	C341.515198,677.124268 337.461426,670.171387 337.200134,662.271667 
	C336.573883,643.337646 336.997711,624.368835 336.997711,605.197388 
	C342.761047,605.197388 348.529938,605.197388 354.742432,605.197388 
	C354.805481,606.583191 354.928040,608.012756 354.926636,609.442139 
	C354.911713,624.595764 354.897003,639.749451 354.839142,654.902954 
	C354.811127,662.238586 357.226318,668.203857 364.366486,671.972046 
z"/>
<path fill="#E7E3DD" opacity="1.000000" stroke="none" 
	d="
M242.090942,637.308716 
	C246.604019,620.717773 255.952393,609.126648 272.650116,604.561096 
	C289.776886,599.878296 307.053192,605.899658 317.346527,620.208923 
	C313.331573,623.801147 309.267303,627.437500 304.929230,631.318787 
	C299.131561,625.431091 291.727203,620.322632 281.908722,621.106384 
	C275.376953,621.627747 269.943787,624.592590 265.621643,629.689087 
	C256.837158,640.047546 257.577362,657.244812 267.369507,666.863159 
	C278.046478,677.350647 291.825378,676.325745 305.372040,664.291260 
	C309.458679,668.147461 313.524231,671.983765 317.545837,675.778625 
	C306.974854,689.810059 290.275513,695.795471 273.019012,690.790894 
	C255.936981,685.836975 245.419754,673.973083 242.157074,656.502014 
	C241.025772,650.444031 241.997559,643.993286 242.090942,637.308716 
z"/>
<path fill="#E9E5DF" opacity="1.000000" stroke="none" 
	d="
M721.990051,605.068726 
	C740.688660,604.994629 759.387207,604.920532 778.587280,605.248291 
	C779.680176,606.096802 780.271545,606.543457 780.862915,606.990112 
	C780.920349,611.024475 780.977722,615.058838 780.632812,619.551147 
	C779.492065,620.591187 778.753601,621.173401 778.015137,621.755554 
	C765.246399,621.755554 752.477661,621.755554 739.445801,621.755554 
	C739.445801,628.581726 739.445801,634.828125 739.445801,641.457275 
	C750.880310,641.457275 762.266907,641.457275 773.971069,641.457275 
	C773.971069,647.059998 773.971069,652.295410 773.971069,657.901611 
	C762.727295,657.901611 751.301392,657.901611 739.444580,657.901611 
	C739.444580,668.639221 739.444580,679.029724 739.444580,689.729980 
	C733.142395,689.729980 727.268677,689.729980 721.019043,689.729980 
	C721.019043,662.045532 721.019043,634.472046 721.271362,606.321289 
	C721.733948,605.556763 721.889404,605.331665 721.990051,605.068726 
z"/>
<path fill="#E7E3DD" opacity="1.000000" stroke="none" 
	d="
M521.084900,653.000000 
	C521.084900,642.526855 521.084900,632.553711 521.084900,622.152954 
	C512.657593,622.152954 504.417603,622.152954 495.903076,622.152954 
	C495.903076,616.323792 495.903076,610.917847 495.903076,605.224731 
	C518.757385,605.224731 541.622131,605.224731 564.695557,605.224731 
	C564.695557,610.682373 564.695557,615.950134 564.695557,621.728516 
	C556.607849,621.728516 548.552795,621.728516 540.110413,621.728516 
	C540.110413,644.626282 540.110413,667.020142 540.110413,689.727661 
	C533.666260,689.727661 527.611145,689.727661 521.084900,689.727661 
	C521.084900,677.690613 521.084900,665.595337 521.084900,653.000000 
z"/>
<path fill="#E9E5DE" opacity="1.000000" stroke="none" 
	d="
M458.068237,658.992432 
	C458.067780,663.795227 458.067780,668.099915 458.067780,672.850464 
	C470.702728,672.850464 483.089844,672.850464 495.738831,672.850464 
	C495.738831,678.696045 495.738831,684.100098 495.738831,689.777588 
	C477.200867,689.777588 458.660004,689.777588 439.942688,689.777588 
	C439.942688,661.632874 439.942688,633.577393 439.942688,605.247437 
	C445.824890,605.247437 451.734009,605.247437 458.068695,605.247437 
	C458.068695,623.009949 458.068695,640.752136 458.068237,658.992432 
z"/>
<path fill="#F6F3EE" opacity="1.000000" stroke="none" 
	d="
M778.379272,621.832703 
	C778.753601,621.173401 779.492065,620.591187 780.552490,620.009033 
	C780.164124,620.642578 779.453735,621.276184 778.379272,621.832703 
z"/>
<path fill="#F6F3EE" opacity="1.000000" stroke="none" 
	d="
M780.932129,606.620605 
	C780.271545,606.543457 779.680176,606.096802 779.046509,605.350342 
	C779.669861,605.450745 780.335571,605.850891 780.932129,606.620605 
z"/>
<path fill="#F6F3EE" opacity="1.000000" stroke="none" 
	d="
M707.292725,807.928711 
	C707.121460,807.634583 707.291199,807.409302 707.708008,807.124756 
	C707.786560,807.329834 707.679443,807.640503 707.292725,807.928711 
z"/>
<path fill="#F6F3EE" opacity="1.000000" stroke="none" 
	d="
M642.944824,807.300659 
	C643.270569,807.109863 643.526672,807.282532 643.863464,807.713623 
	C643.627380,807.810730 643.271057,807.708069 642.944824,807.300659 
z"/>
<path fill="#F6F3EE" opacity="1.000000" stroke="none" 
	d="
M721.716553,605.034363 
	C721.889404,605.331665 721.733948,605.556763 721.350281,605.856628 
	C721.265564,605.646118 721.354370,605.323059 721.716553,605.034363 
z"/>
<path fill="none" opacity="1.000000" stroke="none" 
	d="
M446.327698,324.036438 
	C453.758301,327.469147 456.534912,331.767303 455.981781,338.404236 
	C455.550629,343.577240 451.366241,348.720825 446.451294,349.984161 
	C440.972198,351.392456 436.092834,350.056763 432.508240,345.763794 
	C429.099915,341.681946 428.253418,336.755341 430.416504,331.760590 
	C432.561249,326.808197 436.378540,323.878265 441.963654,323.725616 
	C443.277679,323.689667 444.598053,323.885651 446.327698,324.036438 
z"/>
<path fill="none" opacity="1.000000" stroke="none" 
	d="
M511.225525,269.151611 
	C503.478973,267.669861 498.907440,262.521698 499.073029,255.902756 
	C499.233521,249.489426 504.512024,243.681274 510.798584,243.000671 
	C517.941711,242.227310 523.818542,246.354385 525.633057,253.418335 
	C527.700989,261.468628 521.202698,268.799011 511.225525,269.151611 
z"/>
<path fill="none" opacity="1.000000" stroke="none" 
	d="
M508.835419,549.815186 
	C501.666290,545.995728 498.735352,540.480103 500.059265,533.902405 
	C501.104309,528.710449 506.461212,524.174500 512.081726,523.722473 
	C519.687256,523.110718 525.935608,528.587585 526.335815,536.216553 
	C526.749634,544.104370 520.946167,550.387207 513.165894,550.399231 
	C511.853119,550.401245 510.539886,550.106689 508.835419,549.815186 
z"/>
<path fill="none" opacity="1.000000" stroke="none" 
	d="
M569.053101,313.540192 
	C573.893066,302.499695 583.563965,299.650543 590.625671,306.788879 
	C594.582336,310.788544 595.466064,317.536987 592.670776,322.406860 
	C589.815552,327.380920 583.815979,330.107849 578.700195,328.756714 
	C573.061707,327.267548 569.235168,322.411621 569.010132,316.440796 
	C568.978882,315.611176 569.009216,314.779205 569.053101,313.540192 
z"/>
<path fill="none" opacity="1.000000" stroke="none" 
	d="
M606.831787,431.059204 
	C602.843567,431.330139 600.145081,429.528931 600.418091,426.165771 
	C600.583923,424.121979 602.955872,421.321808 604.935059,420.665314 
	C606.439270,420.166412 609.889343,422.025635 610.696533,423.694916 
	C612.183594,426.770660 611.186096,429.896240 606.831787,431.059204 
z"/>
<path fill="none" opacity="1.000000" stroke="none" 
	d="
M492.273041,759.620361 
	C493.799408,774.916016 483.802612,787.414368 467.910553,790.574646 
	C455.145050,793.113220 440.131378,783.617737 436.310577,770.383667 
	C433.124054,759.346558 435.850067,749.559814 444.026978,741.724792 
	C452.579590,733.529785 463.084625,731.603638 474.004150,735.752808 
	C484.516510,739.747375 490.778351,747.790527 492.273041,759.620361 
z"/>
<path fill="none" opacity="1.000000" stroke="none" 
	d="
M555.938110,760.000000 
	C555.937683,751.536194 555.937683,743.572449 555.937683,734.982300 
	C566.231812,735.381897 576.526001,733.232483 586.112366,738.534302 
	C596.676392,744.376709 601.662903,756.202515 598.999451,769.213562 
	C596.781250,780.049316 585.647705,789.177612 573.335693,789.897583 
	C567.732178,790.225220 562.093628,789.953186 555.938599,789.953186 
	C555.938599,779.977966 555.938599,770.238953 555.938110,760.000000 
z"/>
<path fill="none" opacity="1.000000" stroke="none" 
	d="
M674.204346,666.176331 
	C664.982483,674.893433 654.152283,676.681580 644.319458,671.323486 
	C634.044067,665.724304 628.748840,653.820435 631.059143,641.514099 
	C633.028137,631.025757 641.997986,622.301025 652.883362,621.189636 
	C662.814026,620.175781 670.683777,624.375000 676.150574,632.677979 
	C682.229126,641.910278 682.709656,651.564392 677.523926,661.383179 
	C676.676697,662.987305 675.491089,664.412842 674.204346,666.176331 
z"/>
</svg>